<svg xmlns="http://www.w3.org/2000/svg" width="32" height="32" viewBox="0 0 32 32" fill="none">
<rect width="32" height="32" fill="black"/>
<path d="M 1.5 29.8125 L 0.6875 29.8125 L 0.6875 23.0625 L 1.5 23.0625 Z M 2.589844 27.390625 C 2.589844 26.925781 2.679688 26.507812 2.859375 26.132812 C 3.046875 25.761719 3.300781 25.476562 3.625 25.273438 C 3.953125 25.070312 4.328125 24.96875 4.746094 24.96875 C 5.394531 24.96875 5.917969 25.195312 6.316406 25.640625 C 6.714844 26.089844 6.917969 26.6875 6.917969 27.429688 L 6.917969 27.488281 C 6.917969 27.949219 6.828125 28.367188 6.648438 28.734375 C 6.472656 29.101562 6.21875 29.386719 5.890625 29.59375 C 5.5625 29.796875 5.183594 29.898438 4.753906 29.898438 C 4.109375 29.898438 3.585938 29.675781 3.1875 29.226562 C 2.789062 28.78125 2.589844 28.1875 2.589844 27.449219 Z M 3.40625 27.488281 C 3.40625 28.015625 3.527344 28.4375 3.769531 28.757812 C 4.015625 29.078125 4.34375 29.238281 4.753906 29.238281 C 5.167969 29.238281 5.496094 29.074219 5.738281 28.753906 C 5.984375 28.429688 6.105469 27.972656 6.105469 27.390625 C 6.105469 26.871094 5.980469 26.449219 5.730469 26.125 C 5.484375 25.800781 5.15625 25.636719 4.746094 25.636719 C 4.34375 25.636719 4.019531 25.796875 3.773438 26.117188 C 3.527344 26.4375 3.40625 26.894531 3.40625 27.488281 Z M 7.742188 27.394531 C 7.742188 26.65625 7.914062 26.066406 8.257812 25.628906 C 8.601562 25.1875 9.054688 24.96875 9.621094 24.96875 C 10.199219 24.96875 10.652344 25.175781 10.976562 25.585938 L 11.015625 25.058594 L 11.757812 25.058594 L 11.757812 29.699219 C 11.757812 30.3125 11.578125 30.796875 11.210938 31.152344 C 10.847656 31.507812 10.359375 31.683594 9.742188 31.683594 C 9.398438 31.683594 9.0625 31.609375 8.734375 31.464844 C 8.40625 31.320312 8.15625 31.117188 7.984375 30.863281 L 8.40625 30.375 C 8.753906 30.804688 9.179688 31.019531 9.6875 31.019531 C 10.082031 31.019531 10.390625 30.910156 10.609375 30.6875 C 10.832031 30.464844 10.941406 30.152344 10.941406 29.746094 L 10.941406 29.335938 C 10.617188 29.710938 10.171875 29.898438 9.609375 29.898438 C 9.054688 29.898438 8.601562 29.675781 8.257812 29.226562 C 7.914062 28.78125 7.742188 28.167969 7.742188 27.394531 Z M 8.5625 27.488281 C 8.5625 28.023438 8.671875 28.445312 8.890625 28.753906 C 9.109375 29.058594 9.417969 29.210938 9.8125 29.210938 C 10.324219 29.210938 10.703125 28.976562 10.941406 28.511719 L 10.941406 26.339844 C 10.695312 25.886719 10.320312 25.660156 9.820312 25.660156 C 9.425781 25.660156 9.117188 25.8125 8.894531 26.121094 C 8.671875 26.429688 8.5625 26.882812 8.5625 27.488281 Z M 15.464844 27.222656 L 13.960938 27.222656 L 13.960938 29.8125 L 13.113281 29.8125 L 13.113281 23.414062 L 15.230469 23.414062 C 15.953125 23.414062 16.507812 23.578125 16.890625 23.90625 C 17.28125 24.234375 17.476562 24.710938 17.476562 25.339844 C 17.476562 25.738281 17.367188 26.085938 17.152344 26.378906 C 16.9375 26.675781 16.640625 26.898438 16.253906 27.042969 L 17.757812 29.757812 L 17.757812 29.8125 L 16.851562 29.8125 Z M 13.960938 26.535156 L 15.257812 26.535156 C 15.675781 26.535156 16.007812 26.425781 16.253906 26.210938 C 16.503906 25.992188 16.628906 25.703125 16.628906 25.339844 C 16.628906 24.945312 16.511719 24.640625 16.273438 24.429688 C 16.039062 24.21875 15.699219 24.109375 15.253906 24.109375 L 13.960938 24.109375 Z M 13.960938 26.535156 " fill="white"/>
</svg>
