<svg width="512" height="512" viewBox="0 0 512 512" fill="none" xmlns="http://www.w3.org/2000/svg">
<rect width="512" height="512" fill="white"/>
<path d="M23.9766 477H10.9688V369H23.9766V477ZM41.4141 438.258C41.4141 430.805 42.8672 424.102 45.7734 418.148C48.7266 412.195 52.8047 407.602 58.0078 404.367C63.2578 401.133 69.2344 399.516 75.9375 399.516C86.2969 399.516 94.6641 403.102 101.039 410.273C107.461 417.445 110.672 426.984 110.672 438.891V439.805C110.672 447.211 109.242 453.867 106.383 459.773C103.57 465.633 99.5156 470.203 94.2188 473.484C88.9688 476.766 82.9219 478.406 76.0781 478.406C65.7656 478.406 57.3984 474.82 50.9766 467.648C44.6016 460.477 41.4141 450.984 41.4141 439.172V438.258ZM54.4922 439.805C54.4922 448.242 56.4375 455.016 60.3281 460.125C64.2656 465.234 69.5156 467.789 76.0781 467.789C82.6875 467.789 87.9375 465.211 91.8281 460.055C95.7188 454.852 97.6641 447.586 97.6641 438.258C97.6641 429.914 95.6719 423.164 91.6875 418.008C87.75 412.805 82.5 410.203 75.9375 410.203C69.5156 410.203 64.3359 412.758 60.3984 417.867C56.4609 422.977 54.4922 430.289 54.4922 439.805ZM123.891 438.328C123.891 426.469 126.633 417.047 132.117 410.062C137.602 403.031 144.867 399.516 153.914 399.516C163.195 399.516 170.438 402.797 175.641 409.359L176.273 400.922H188.156V475.172C188.156 485.016 185.227 492.773 179.367 498.445C173.555 504.117 165.727 506.953 155.883 506.953C150.398 506.953 145.031 505.781 139.781 503.438C134.531 501.094 130.523 497.883 127.758 493.805L134.508 486C140.086 492.891 146.906 496.336 154.969 496.336C161.297 496.336 166.219 494.555 169.734 490.992C173.297 487.43 175.078 482.414 175.078 475.945V469.406C169.875 475.406 162.773 478.406 153.773 478.406C144.867 478.406 137.648 474.82 132.117 467.648C126.633 460.477 123.891 450.703 123.891 438.328ZM136.969 439.805C136.969 448.383 138.727 455.133 142.242 460.055C145.758 464.93 150.68 467.367 157.008 467.367C165.211 467.367 171.234 463.641 175.078 456.188V421.453C171.094 414.188 165.117 410.555 157.148 410.555C150.82 410.555 145.875 413.016 142.312 417.938C138.75 422.859 136.969 430.148 136.969 439.805ZM247.43 435.586H223.383V477H209.812V374.625H243.703C255.234 374.625 264.094 377.25 270.281 382.5C276.516 387.75 279.633 395.391 279.633 405.422C279.633 411.797 277.898 417.352 274.43 422.086C271.008 426.82 266.227 430.359 260.086 432.703L284.133 476.156V477H269.648L247.43 435.586ZM223.383 424.547H244.125C250.828 424.547 256.148 422.812 260.086 419.344C264.07 415.875 266.062 411.234 266.062 405.422C266.062 399.094 264.164 394.242 260.367 390.867C256.617 387.492 251.18 385.781 244.055 385.734H223.383V424.547Z" fill="black"/>
</svg>
